<?xml version="1.0" encoding="UTF-8"?>
<!DOCTYPE svg PUBLIC "-//W3C//DTD SVG 1.1//EN" "http://www.w3.org/Graphics/SVG/1.1/DTD/svg11.dtd">
<!-- Creator: CorelDRAW X7 -->
<svg xmlns="http://www.w3.org/2000/svg" xml:space="preserve" width="1.39555cm" height="1.30252cm" version="1.1" style="shape-rendering:geometricPrecision; text-rendering:geometricPrecision; image-rendering:optimizeQuality; fill-rule:evenodd; clip-rule:evenodd"
viewBox="0 0 841 785"
 xmlns:xlink="http://www.w3.org/1999/xlink">
 <defs>
  <style type="text/css">
   <![CDATA[
    .fil4 {fill:#0324DE}
    .fil19 {fill:#070E7F}
    .fil1 {fill:#09010C}
    .fil2 {fill:#099100}
    .fil20 {fill:#182378}
    .fil12 {fill:#191000}
    .fil5 {fill:#1F2023}
    .fil13 {fill:#2E2701}
    .fil10 {fill:#3D3B00}
    .fil9 {fill:#645F19}
    .fil11 {fill:#79752C}
    .fil16 {fill:#979621}
    .fil17 {fill:#C5C35A}
    .fil8 {fill:#C7FDC7}
    .fil18 {fill:#D5CE8F}
    .fil6 {fill:#D7D163}
    .fil7 {fill:#E8EEE8}
    .fil15 {fill:#F0EE6C}
    .fil14 {fill:#F6F34A}
    .fil3 {fill:#FDFCF9}
    .fil0 {fill:#FEF600}
   ]]>
  </style>
 </defs>
 <g id="Layer_x0020_1">
  <metadata id="CorelCorpID_0Corel-Layer"/>
  <g id="_1788643282848">
   <path class="fil0" d="M131 280c19,-7 37,-21 58,-31 115,-59 49,-45 232,-45 141,0 120,-19 229,44 17,10 40,25 59,33l1 -268 -580 0 1 267z"/>
   <path class="fil1" d="M702 423l-8 30c-4,11 -6,20 -14,29 -4,16 -11,27 -21,37l-6 12 -7 13c-9,9 -20,21 -31,28 -6,12 -17,17 -28,25 -7,8 -47,35 -62,40l-9 7 -8 1c-16,12 -62,29 -87,30 -25,0 -76,-19 -88,-29 -22,-7 -36,-20 -52,-25l-7 -2 0 -7c-5,-2 -7,-2 -14,-7 -6,-5 -3,-3 -6,-8 -16,-9 -17,-12 -29,-24 -6,-5 -2,-1 -7,-6l-17 -19c-7,-7 -13,-15 -17,-27 -13,-7 -16,-19 -23,-34l-16 -33 -8 -35 -4 -35 -3 -27 580 0 -2 26 -6 40zm-513 -118l58 2 0 26 77 0 1 -28 55 0 1 28 77 0 1 -27 57 0 0 27 77 0 1 -28 56 0 1 27c27,4 44,-3 59,5 -4,2 -1,2 -9,3l-57 1 1 -28 -45 0 0 27 -91 0 0 -27 -44 0 0 28 -90 -3 0 -25 -44 0 0 27 -91 1 0 -28 -44 0 0 27c-18,1 -53,6 -66,-3 13,-9 42,-4 58,-4l1 -28zm520 -24l0 39 -52 8 0 -27 -69 0 -1 27 -66 -1 0 -26 -68 0 -1 27 -65 0 0 -27 -68 0 0 26 -67 1 0 -27 -68 0 -1 27 -51 -7 -1 -41 -1 -267 580 0 -1 268zm-593 88c0,64 24,120 60,172 47,68 175,148 245,148 26,0 66,-17 91,-29l54 -30c96,-75 159,-129 159,-301l0 -329 -609 0 0 369z"/>
   <path class="fil2" d="M131 280l1 41 44 -1c1,-23 -16,-33 80,-26l4 25 51 1 1 -26 79 0 3 26 51 0c1,-23 -10,-34 82,-25l3 25 50 0 2 -26 78 0 5 25 44 1 0 -39c-19,-8 -42,-23 -59,-33 -109,-63 -88,-44 -229,-44 -183,0 -117,-14 -232,45 -21,10 -39,24 -58,31z"/>
   <path class="fil3" d="M137 419l8 35c15,-6 20,-16 39,-10 15,6 16,16 40,16 23,-1 23,-14 40,-17 33,-6 39,37 86,7 19,-13 26,-9 44,2 40,25 48,-13 87,-8 11,6 19,15 36,16 20,0 27,-8 40,-16 38,-5 32,22 70,15 38,-7 13,-29 67,-6l8 -30c-1,-1 -2,-2 -7,-5l-22 -14c-30,-1 -25,15 -52,16 -24,1 -30,-10 -48,-17 -33,2 -23,18 -56,17 -32,-1 -20,-15 -52,-17 -21,8 -21,18 -48,17 -28,-1 -26,-18 -48,-17 -21,1 -18,17 -49,17 -21,0 -27,-11 -44,-17 -32,2 -22,18 -56,17 -29,-1 -21,-15 -52,-17l-31 16z"/>
   <path class="fil4" d="M133 384l4 35 31 -16c31,2 23,16 52,17 34,1 24,-15 56,-17 17,6 23,17 44,17 31,0 28,-16 49,-17 22,-1 20,16 48,17 27,1 27,-9 48,-17 32,2 20,16 52,17 33,1 23,-15 56,-17 18,7 24,18 48,17 27,-1 22,-17 52,-16l22 14c5,3 6,4 7,5l6 -40c-27,-3 -15,-17 -51,-15 -40,24 -41,22 -80,0 -36,-2 -57,40 -94,0 -43,-2 -27,12 -55,16 -32,4 -32,-11 -48,-15 -26,-7 -28,12 -52,15 -24,2 -32,-8 -48,-16 -39,-2 -25,17 -60,16 -30,-1 -20,-17 -56,-16 -11,6 -16,12 -31,16z"/>
   <path class="fil3" d="M161 487c7,15 10,27 23,34 17,8 33,22 59,10 35,-16 18,-20 56,-1 30,16 42,-3 61,-10 24,-9 34,16 61,16 27,-1 36,-26 60,-15 11,5 10,9 26,13 33,8 42,-16 62,-16 16,0 15,8 29,14 27,11 42,-5 61,-13 10,-10 17,-21 21,-37 -36,-19 -39,37 -94,2 -23,-15 -29,-3 -45,6 -17,9 -38,5 -50,-3 -44,-30 -46,29 -95,3 -17,-10 -19,-21 -44,-6 -19,13 -25,12 -53,9 -27,-36 -43,-3 -67,1 -32,5 -78,-36 -71,-7z"/>
   <path class="fil5" d="M119 724c19,-6 537,-3 602,-2l0 54c-78,0 -571,8 -601,-2l-1 -50zm531 -26l46 14 -47 1 1 -15zm-460 1l1 13 -44 -1 43 -12zm540 14c-17,-3 -44,-19 -54,-17l127 0 -38 21c6,8 33,27 42,31l-77 0 0 -35zm-655 4c-11,-10 -28,-16 -38,-22l127 0c-16,7 -34,13 -54,18l0 35 -77 0c9,-5 36,-23 42,-31zm-15 0c-18,16 -38,25 -56,40l104 0 0 28 621 0 0 -28 104 -3c-4,-3 -4,-3 -8,-5 -18,-11 -29,-24 -44,-28 8,-10 16,-12 30,-19l30 -17 -204 0c6,15 -3,13 4,28l-441 0 0 -28 -200 0c8,11 46,29 60,32z"/>
   <path class="fil0" d="M625 733l8 0c6,4 6,0 6,16 -1,12 -1,8 -6,15l-8 1c-14,-22 -3,-28 0,-32zm-368 0l7 0c7,4 6,-1 6,16 0,13 0,10 -5,16l-9 0c-6,-4 -5,-5 -5,-16 0,-22 1,-12 6,-16zm-29 14c5,-23 0,-8 8,-16l8 18c2,13 4,10 -3,16l-10 -1c-8,-3 -4,-3 -3,-17zm254 18l-16 0c-1,-16 -3,-21 3,-33 20,1 11,-7 17,12 2,9 -1,15 -4,21zm-331 -31c11,-3 9,-2 12,4 6,0 3,5 3,15l1 10 -17 1c-13,-27 0,-29 1,-30zm398 22l1 -23c16,7 13,13 16,33l-17 -10zm-61 9c2,-14 1,-26 13,-31l7 19c-2,1 -3,1 -4,3l-16 9zm-283 -16c6,-14 -2,2 9,-7 -2,16 2,12 -9,22l0 -15zm442 16l6 -23c7,6 3,-3 10,21 -9,-3 0,4 -10,-8l-6 10zm-119 -32l9 0c11,-1 3,14 1,24l11 -1 4 11c-19,-8 -7,-2 -20,-3l-6 -12c-7,17 1,7 -11,14 0,-14 2,-23 12,-33zm-217 4l3 -4 10 3c0,0 2,1 3,1l0 30 -18 -3 -4 -11 -11 11c-1,-14 -2,-21 2,-31 24,-2 9,1 15,4zm136 -3l16 -2c0,4 0,14 0,18 -3,26 0,8 -6,15l-11 -19 0 20c-14,-6 -6,7 -12,-15 -4,21 2,9 -10,15l-6 -34c11,10 3,-10 10,17 1,-2 2,-8 3,-9 5,-8 -1,-1 7,-8l3 18 6 -16zm-70 31l-1 -32c7,6 3,-1 9,11l11 -10 0 30c-11,-10 4,-6 -11,-13l-8 14zm-40 -10c0,19 1,4 -4,10l-1 -32 17 2c2,25 0,9 -4,15l-8 5zm-132 -6l-10 16c-2,-40 -1,-26 5,-33l5 17zm-16 -11l-1 8c-1,1 -2,1 -2,2 0,1 -2,1 -2,2 0,0 -5,4 -6,4 4,8 -2,-1 4,5 1,0 2,1 2,2l-11 3 -1 -31c25,-2 12,1 17,5zm413 27l-9 -13c-3,20 2,9 -6,11l0 -28c14,-1 10,-5 12,14 6,-19 3,-11 10,-17 3,5 4,-5 5,13 1,6 -1,14 -1,20 -6,-6 -3,1 -6,-8 -1,-2 -1,-9 -1,-11l-4 19zm-386 -32c3,4 3,-3 5,12 0,5 -1,15 -1,20 -3,-4 -15,-24 -4,-32zm450 0l19 0c-13,16 -4,9 -8,24 -2,10 1,2 -4,8 0,-17 0,-22 -7,-32zm-306 19l9 -13 3 25c-11,-7 -8,-8 -20,1l7 -32c6,7 7,-3 1,19zm-240 20l599 1 -2 -48 -596 1 -1 46z"/>
   <path class="fil4" d="M145 454l16 33c-7,-29 39,12 71,7 24,-4 40,-37 67,-1 28,3 34,4 53,-9 25,-15 27,-4 44,6 49,26 51,-33 95,-3 12,8 33,12 50,3 16,-9 22,-21 45,-6 55,35 58,-21 94,-2 8,-9 10,-18 14,-29 -54,-23 -29,-1 -67,6 -38,7 -32,-20 -70,-15 -13,8 -20,16 -40,16 -17,-1 -25,-10 -36,-16 -39,-5 -47,33 -87,8 -18,-11 -25,-15 -44,-2 -47,30 -53,-13 -86,-7 -17,3 -17,16 -40,17 -24,0 -25,-10 -40,-16 -19,-6 -24,4 -39,10z"/>
   <path class="fil4" d="M184 521c4,12 10,20 17,27l17 19c5,5 1,1 7,6l44 -19c22,-2 24,17 51,17 29,0 34,-19 52,-17 18,1 22,20 53,17 22,-2 27,-19 47,-17 21,1 16,18 48,17 27,-1 29,-18 49,-17 5,0 35,14 46,18 11,-7 22,-19 31,-28l7 -13 6 -12c-19,8 -34,24 -61,13 -14,-6 -13,-14 -29,-14 -20,0 -29,24 -62,16 -16,-4 -15,-8 -26,-13 -24,-11 -33,14 -60,15 -27,0 -37,-25 -61,-16 -19,7 -31,26 -61,10 -38,-19 -21,-15 -56,1 -26,12 -42,-2 -59,-10z"/>
   <path class="fil3" d="M225 573c12,12 13,15 29,24 37,-14 31,8 59,12 36,6 28,-17 64,-17 15,7 25,19 48,17 26,-2 20,-17 52,-16 15,8 30,22 55,15 33,-9 1,-17 55,-11 11,-8 22,-13 28,-25 -11,-4 -41,-18 -46,-18 -20,-1 -22,16 -49,17 -32,1 -27,-16 -48,-17 -20,-2 -25,15 -47,17 -31,3 -35,-16 -53,-17 -18,-2 -23,17 -52,17 -27,0 -29,-19 -51,-17l-44 19z"/>
   <path class="fil3" d="M133 384c15,-4 20,-10 31,-16 36,-1 26,15 56,16 35,1 21,-18 60,-16 16,8 24,18 48,16 24,-3 26,-22 52,-15 16,4 16,19 48,15 28,-4 12,-18 55,-16 37,40 58,-2 94,0 39,22 40,24 80,0 36,-2 24,12 51,15l2 -26 -580 0 3 27z"/>
   <path class="fil4" d="M254 597c3,5 0,3 6,8 7,5 9,5 14,7l7 9c16,5 30,18 52,25l35 -20c29,7 37,30 72,15 28,-13 19,-22 52,-3 6,3 8,4 16,7l8 -1c4,-10 -3,-4 9,-7 15,-5 55,-32 62,-40 -54,-6 -22,2 -55,11 -25,7 -40,-7 -55,-15 -32,-1 -26,14 -52,16 -23,2 -33,-10 -48,-17 -36,0 -28,23 -64,17 -28,-4 -22,-26 -59,-12z"/>
   <path class="fil6" d="M121 726l596 -1 2 48 -599 -1 1 -46zm-1 48c30,10 523,2 601,2l0 -54c-65,-1 -583,-4 -602,2l1 50z"/>
   <path class="fil7" d="M188 333c-16,0 -45,-5 -58,4 13,9 48,4 66,3l0 -27 44 0 0 28 91 -1 0 -27 44 0 0 25 90 3 0 -28 44 0 0 27 91 0 0 -27 45 0 -1 28 57 -1c8,-1 5,-1 9,-3 -15,-8 -32,-1 -59,-5l-1 -27 -56 0 -1 28 -77 0 0 -27 -57 0 -1 27 -77 0 -1 -28 -55 0 -1 28 -77 0 0 -26 -58 -2 -1 28z"/>
   <path class="fil8" d="M132 321l51 7 1 -27 68 0 0 27 67 -1 0 -26 68 0 0 27 65 0 1 -27 68 0 0 26 66 1 1 -27 69 0 0 27 52 -8 -44 -1 -5 -25 -78 0 -2 26 -50 0 -3 -25c-92,-9 -81,2 -82,25l-51 0 -3 -26 -79 0 -1 26 -51 -1 -4 -25c-96,-7 -79,3 -80,26l-44 1z"/>
   <path class="fil3" d="M333 646c12,10 63,29 88,29 25,-1 71,-18 87,-30 -8,-3 -10,-4 -16,-7 -33,-19 -24,-10 -52,3 -35,15 -43,-8 -72,-15l-35 20z"/>
   <path class="fil0" d="M75 717c-6,8 -33,26 -42,31l77 0 0 -35c20,-5 38,-11 54,-18l-127 0c10,6 27,12 38,22z"/>
   <path class="fil0" d="M730 713l0 35 77 0c-9,-4 -36,-23 -42,-31l38 -21 -127 0c10,-2 37,14 54,17z"/>
   <path class="fil9" d="M482 765c3,-6 6,-12 4,-21 -6,-19 3,-11 -17,-12 -6,12 -4,17 -3,33l16 0z"/>
   <path class="fil10" d="M606 746c0,2 0,9 1,11 3,9 0,2 6,8 0,-6 2,-14 1,-20 -1,-18 -2,-8 -5,-13 -7,6 -4,-2 -10,17 -2,-19 2,-15 -12,-14l0 28c8,-2 3,9 6,-11l9 13 4 -19z"/>
   <path class="fil10" d="M446 746l1 -12 -6 16 -3 -18c-8,7 -2,0 -7,8 -1,1 -2,7 -3,9 -7,-27 1,-7 -10,-17l6 34c12,-6 6,6 10,-15 6,22 -2,9 12,15l0 -20z"/>
   <path class="fil9" d="M150 764l14 1c-2,-19 -5,-9 2,-12 0,-10 3,-15 -3,-15l1 -5 -13 1c-1,1 -14,3 -1,30z"/>
   <path class="fil9" d="M305 744c2,8 3,10 4,20l18 3 0 -30c-1,0 -3,-1 -3,-1l-10 -3c0,11 2,7 -9,11z"/>
   <path class="fil10" d="M533 764c1,-20 -1,-6 5,-7 2,-10 10,-25 -1,-24l-5 15 -4 -15c-10,10 -12,19 -12,33 12,-7 4,3 11,-14l6 12z"/>
   <path class="fil11" d="M446 746l11 19c6,-7 3,11 6,-15 0,-4 0,-14 0,-18l-16 2 -1 12z"/>
   <path class="fil12" d="M256 765c1,-15 0,-8 4,-15 6,7 4,0 5,15 5,-6 5,-3 5,-16 0,-17 1,-12 -6,-16 -1,16 0,7 -4,12 -4,-5 -4,9 -3,-12 -5,4 -6,-6 -6,16 0,11 -1,12 5,16z"/>
   <path class="fil13" d="M385 751c15,7 0,3 11,13l0 -30 -11 10c-6,-12 -2,-5 -9,-11l1 32 8 -14z"/>
   <polygon class="fil14" points="649,713 696,712 650,698 "/>
   <path class="fil12" d="M633 733c0,14 2,18 -4,27 -6,-9 -4,-12 -4,-27 -3,4 -14,10 0,32l8 -1c5,-7 5,-3 6,-15 0,-16 0,-12 -6,-16z"/>
   <path class="fil13" d="M549 756l17 10c-3,-20 0,-26 -16,-33l-1 23z"/>
   <path class="fil13" d="M504 756c1,-2 2,-2 4,-3l-7 -19c-12,5 -11,17 -13,31l16 -9z"/>
   <path class="fil10" d="M188 746l-10 -6 11 -2c-5,-4 8,-7 -17,-5l1 31 11 -3c0,-1 -1,-2 -2,-2 -6,-6 0,3 -4,-5 1,0 6,-4 6,-4 0,-1 2,-1 2,-2 0,-1 1,-1 2,-2z"/>
   <path class="fil12" d="M360 752c6,-22 5,-12 -1,-19l-7 32c12,-9 9,-8 20,-1l-3 -25 -9 13z"/>
   <polygon class="fil14" points="147,711 191,712 190,699 "/>
   <path class="fil10" d="M309 764c-1,-10 -2,-12 -4,-20 -7,1 -1,5 -9,-3 8,-5 -10,-8 15,-4 -6,-3 9,-6 -15,-4 -4,10 -3,17 -2,31l11 -11 4 11z"/>
   <path class="fil12" d="M337 755l-1 -9 6 -9 2 8 1 5c4,-6 6,10 4,-15l-17 -2 1 32c5,-6 4,9 4,-10z"/>
   <path class="fil9" d="M228 747c2,15 2,3 8,9 1,-1 4,-4 4,-3 0,1 1,0 4,-4l-8 -18c-8,8 -3,-7 -8,16z"/>
   <path class="fil12" d="M666 733c7,10 7,15 7,32 5,-6 2,2 4,-8 4,-15 -5,-8 8,-24l-19 0z"/>
   <path class="fil10" d="M205 749l-5 -17c-6,7 -7,-7 -5,33l10 -16z"/>
   <path class="fil15" d="M633 733l-8 0c0,15 -2,18 4,27 6,-9 4,-13 4,-27z"/>
   <path class="fil12" d="M216 733c-11,8 1,28 4,32 0,-5 1,-15 1,-20 -2,-15 -2,-8 -5,-12z"/>
   <path class="fil12" d="M653 755c10,12 1,5 10,8 -7,-24 -3,-15 -10,-21l-6 23 6 -10z"/>
   <path class="fil12" d="M231 764c2,-13 -1,-3 5,-7l5 8c7,-6 5,-3 3,-16 -3,4 -4,5 -4,4 0,-1 -3,2 -4,3 -6,-6 -6,6 -8,-9 -1,14 -5,14 3,17z"/>
   <path class="fil11" d="M533 764c13,1 1,-5 20,3l-4 -11 -11 1c-6,1 -4,-13 -5,7z"/>
   <path class="fil13" d="M205 749l0 15c11,-10 7,-6 9,-22 -11,9 -3,-7 -9,7z"/>
   <path class="fil16" d="M305 744c11,-4 9,0 9,-11l-3 4c-25,-4 -7,-1 -15,4 8,8 2,4 9,3z"/>
   <path class="fil15" d="M256 765l9 0c-1,-15 1,-8 -5,-15 -4,7 -3,0 -4,15z"/>
   <path class="fil15" d="M264 733l-7 0c-1,21 -1,7 3,12 4,-5 3,4 4,-12z"/>
   <polygon class="fil17" points="537,733 528,733 532,748 "/>
   <polygon class="fil11" points="337,755 345,750 344,745 336,746 "/>
   <path class="fil15" d="M231 764l10 1 -5 -8c-6,4 -3,-6 -5,7z"/>
   <polygon class="fil6" points="188,746 189,738 178,740 "/>
   <polygon class="fil18" points="336,746 344,745 342,737 "/>
   <polygon class="fil19" points="281,621 274,612 274,619 "/>
   <path class="fil20" d="M516 644l9 -7c-12,3 -5,-3 -9,7z"/>
   <path class="fil10" d="M150 764l17 -1 -1 -10c-7,3 -4,-7 -2,12l-14 -1z"/>
   <path class="fil12" d="M163 738c-3,-6 -1,-7 -12,-4l13 -1 -1 5z"/>
   <polygon class="fil19" points="646,544 653,531 "/>
  </g>
 </g>
</svg>
