<svg width="176" height="120" fill="none" xmlns="http://www.w3.org/2000/svg"><path d="M147.463 55.244a20.767 20.767 0 002.496-9.89c0-11.884-9.982-21.529-22.296-21.529-2.782-.005-5.542.5-8.143 1.49a34.03 34.03 0 001.4 6.412 14.883 14.883 0 015.448-1.021c7.924 0 14.349 6.142 14.349 13.706a13.263 13.263 0 01-2.551 7.816 36.425 36.425 0 009.297 3.016z" fill="#fff"/><path d="M126.37 30.706a14.873 14.873 0 00-5.448 1.022 35.746 35.746 0 0013.176 18.103 28.48 28.48 0 004.07 2.397 13.263 13.263 0 002.551-7.816c.001-7.563-6.425-13.706-14.349-13.706z" fill="#E71618"/><path d="M159.281 38.172c5.267-4.046 18.565-12.79 16.505-16.338-1.664-2.86-8.937.595-17.145 5.07-6.449 3.525-5.055-.732-.959-6.947 3.613-5.471 9.044-12.854 6.02-14.853-3.527-2.324-14.326 10.545-16.853 13.085-2.527 2.54-4.833 3.908-3.565-3.166 1.699-9.402 2.032-14.318-.078-14.91-2.951-.83-4.794 2.862-9.21 13.193-3.167 7.414-5.929 8.729-6.27 2.077-.442-11.953-3.472-9.212-4.638-7.374-3.199 5.05-4.287 11.169-3.566 17.307a22.753 22.753 0 018.143-1.49c12.314 0 22.297 9.645 22.297 21.529a20.78 20.78 0 01-2.497 9.89c7.031 1.288 14.436.67 20.019-2.114.928-.462 3.186-1.849 1.779-3.762-2.805-3.827-7.862-1.82-13.269-3.39-4.743-1.38-.514-4.892 3.287-7.807z" fill="#E71618"/><path d="M138.167 52.228a14.57 14.57 0 01-5.194 4.368 14.533 14.533 0 01-6.604 1.538c-7.926 0-14.353-6.145-14.353-13.721 0-5.73 3.683-10.636 8.905-12.685a34.11 34.11 0 01-1.401-6.411c-8.291 3.14-14.157 10.92-14.157 20.038 0 11.896 9.985 21.544 22.302 21.544a22.361 22.361 0 0011.503-3.09 22.44 22.44 0 008.297-8.564 36.438 36.438 0 01-9.298-3.017z" fill="#5A5C5E"/><path d="M18.219 46.83a1.61 1.61 0 00-1.611-1.566H2.018A1.603 1.603 0 00.414 46.83a1.581 1.581 0 001.604 1.54h5.599v16.805a1.706 1.706 0 001.7 1.658 1.698 1.698 0 001.698-1.658V48.37h5.593a1.576 1.576 0 001.612-1.539h-.001zm4.871 3.46c-4.458 0-7.945 3.663-7.945 8.342v.066c0 4.754 3.549 8.339 8.245 8.339a8.484 8.484 0 006.2-2.416 1.43 1.43 0 00.517-1.084 1.49 1.49 0 00-1.523-1.445 1.52 1.52 0 00-.983.375 5.889 5.889 0 01-4.15 1.637c-2.558 0-4.426-1.605-4.892-4.138h10.653a1.56 1.56 0 001.582-1.542c0-4.046-2.646-8.135-7.704-8.135zm-.06 2.87c2.753 0 4.048 2.067 4.386 4.165h-8.858c.46-2.475 2.237-4.165 4.472-4.165zm11.498-8.915a1.623 1.623 0 00-1.513.995c-.084.198-.127.41-.128.624v19.347a1.637 1.637 0 001.034 1.515c.202.079.417.117.634.112a1.6 1.6 0 001.523-.997c.082-.2.123-.414.12-.63V45.864a1.645 1.645 0 00-1.67-1.62zm13.154 13.521l4.745-4.54a1.626 1.626 0 00.605-1.224 1.541 1.541 0 00-.958-1.43 1.53 1.53 0 00-.594-.112 1.67 1.67 0 00-1.273.597l-7.534 7.47V45.863c0-.44-.174-.862-.485-1.173a1.653 1.653 0 00-2.825 1.173V65.21a1.64 1.64 0 001.041 1.516c.202.079.419.117.636.11a1.592 1.592 0 001.516-.997c.08-.2.12-.414.117-.63v-2.698l2.667-2.567 5.028 6.176a1.624 1.624 0 001.385.717 1.543 1.543 0 001.484-.94 1.57 1.57 0 00-.284-1.665l-5.271-6.467zm14.546-7.476c-4.828 0-8.603 3.679-8.603 8.371v.064c0 4.661 3.75 8.313 8.54 8.313 4.84 0 8.635-3.674 8.635-8.376v-.053c0-4.668-3.769-8.319-8.572-8.319zm-5.239 8.318c0-3.054 2.23-5.364 5.177-5.364a5.275 5.275 0 013.77 1.6 5.302 5.302 0 011.5 3.818v.063a5.172 5.172 0 01-1.472 3.774 5.147 5.147 0 01-3.736 1.547 5.24 5.24 0 01-3.747-1.589 5.267 5.267 0 01-1.492-3.795v-.054zm34.052-8.318a6.532 6.532 0 00-5.407 2.587 5.784 5.784 0 00-5.032-2.588 5.867 5.867 0 00-4.511 1.918v-.122a1.66 1.66 0 00-3.321 0v13.126a1.643 1.643 0 001.04 1.515c.202.08.418.117.635.112a1.602 1.602 0 001.525-.996c.082-.2.123-.415.12-.631v-7.623c0-2.482 1.601-4.283 3.816-4.283 2.222 0 3.499 1.463 3.499 4.013v7.893a1.62 1.62 0 001.64 1.627 1.628 1.628 0 001.537-.995c.085-.2.13-.415.13-.632v-7.719c0-2.502 1.515-4.187 3.76-4.187 2.273 0 3.526 1.445 3.526 4.075v7.831a1.663 1.663 0 001.656 1.635 1.655 1.655 0 001.657-1.635V56.85c0-4.05-2.399-6.56-6.27-6.56zM16.63 71.962a1.544 1.544 0 00-1.532 1.523v18.569a1.555 1.555 0 001.548 1.517 1.547 1.547 0 001.55-1.517V73.485a1.55 1.55 0 00-1.565-1.523zm13.504 5.211a6.238 6.238 0 00-5.005 2.244v-.573a1.524 1.524 0 00-1.518-1.487 1.516 1.516 0 00-1.517 1.487v13.238a1.5 1.5 0 00.953 1.388c.186.073.384.107.583.1a1.46 1.46 0 001.065-.425 1.469 1.469 0 00.434-1.063v-7.724c0-2.61 1.787-4.436 4.341-4.436 2.532 0 3.981 1.55 3.981 4.257v7.904a1.5 1.5 0 00.952 1.389c.186.072.384.106.583.1a1.47 1.47 0 001.388-.914c.075-.182.112-.378.11-.575v-8.46c0-3.915-2.491-6.448-6.35-6.448v-.002zm23.476-6.1a1.464 1.464 0 00-1.503 1.485v7.2a7.24 7.24 0 00-5.644-2.583c-3.796 0-7.83 2.9-7.83 8.275v.058c0 5.35 4.033 8.239 7.83 8.239a7.045 7.045 0 005.644-2.705v1.04a1.5 1.5 0 00.95 1.388c.186.072.384.107.582.102a1.47 1.47 0 001.391-.914 1.48 1.48 0 00.111-.575V72.558a1.499 1.499 0 00-.951-1.384 1.49 1.49 0 00-.581-.101zm-1.408 14.348v.064a5.456 5.456 0 01-1.516 3.875 5.429 5.429 0 01-3.802 1.672c-2.936 0-5.163-2.386-5.163-5.547v-.064c0-3.254 2.13-5.527 5.163-5.527a5.346 5.346 0 013.819 1.642A5.372 5.372 0 0152.2 85.42zM66 77.173c-4.784 0-8.527 3.647-8.527 8.31v.055c0 4.616 3.718 8.238 8.47 8.238 4.786 0 8.55-3.645 8.55-8.293v-.064c0-4.625-3.734-8.246-8.493-8.246zm-5.438 8.248c0-3.165 2.313-5.553 5.379-5.553a5.453 5.453 0 013.908 1.657 5.481 5.481 0 011.547 3.96v.055c0 3.144-2.32 5.521-5.397 5.521a5.434 5.434 0 01-3.887-1.642 5.46 5.46 0 01-1.55-3.934v-.064zm24.267-8.248a6.261 6.261 0 00-5.008 2.244v-.573a1.521 1.521 0 00-1.516-1.495 1.514 1.514 0 00-1.516 1.495v13.238a1.497 1.497 0 001.535 1.489 1.453 1.453 0 001.391-.912c.074-.183.11-.38.106-.577v-7.724c0-2.61 1.786-4.436 4.352-4.436 2.525 0 3.976 1.55 3.976 4.258v7.903a1.499 1.499 0 00.948 1.388c.185.072.383.107.581.101a1.471 1.471 0 001.391-.913 1.48 1.48 0 00.111-.576v-8.46c0-3.915-2.497-6.448-6.352-6.448v-.002zm16.301 0c-4.406 0-7.857 3.64-7.857 8.276v.057c0 4.715 3.502 8.27 8.162 8.27a8.372 8.372 0 006.147-2.393 1.312 1.312 0 00.471-.985 1.36 1.36 0 00-.421-.944 1.33 1.33 0 00-.963-.368c-.326.005-.64.125-.885.34a6.1 6.1 0 01-4.293 1.69c-2.674 0-4.686-1.779-5.112-4.474h10.93a1.427 1.427 0 001.439-1.404c0-4.006-2.614-8.065-7.619-8.065h.001zm-4.752 7.11c.42-2.677 2.306-4.503 4.693-4.503 2.948 0 4.295 2.252 4.609 4.503h-9.302zm20.758-.227l-.059-.015c-1.916-.57-3.72-1.102-3.72-2.283v-.056c0-1.11 1.074-1.868 2.675-1.868a8.265 8.265 0 013.912 1.132 1.6 1.6 0 00.691.162 1.333 1.333 0 00.96-.366 1.347 1.347 0 00.419-.94 1.44 1.44 0 00-.746-1.238 11.474 11.474 0 00-5.173-1.342c-3.351 0-5.687 1.933-5.687 4.702v.059c0 3.128 3.146 3.997 5.431 4.626 2.077.57 3.652 1.1 3.652 2.355v.06c0 1.246-1.158 2.076-2.888 2.076a8.607 8.607 0 01-4.767-1.562 1.263 1.263 0 00-.776-.238 1.351 1.351 0 00-1.376 1.316 1.366 1.366 0 00.576 1.106 11.282 11.282 0 006.219 1.972c3.546 0 5.926-1.969 5.926-4.909v-.051c0-3.154-3.174-4.084-5.272-4.697h.003zm9.409-6.696a1.492 1.492 0 00-1.502 1.486v13.237a1.49 1.49 0 001.528 1.49 1.463 1.463 0 001.506-1.49V78.846a1.497 1.497 0 00-1.533-1.486h.001zm16.597 1.72c-1.212-1.18-2.996-1.784-5.304-1.784a12.905 12.905 0 00-5.257 1.058 1.379 1.379 0 00-.843 1.259 1.361 1.361 0 001.377 1.314 1.72 1.72 0 00.554-.112 9.608 9.608 0 013.927-.834c1.966 0 4.301.666 4.301 3.817v.085a16.853 16.853 0 00-4.45-.544c-4.345 0-7.049 2.013-7.049 5.259v.07c0 3.333 3.119 5.079 6.199 5.079a7.263 7.263 0 005.3-2.056v.475a1.415 1.415 0 001.483 1.406 1.43 1.43 0 001.465-1.465v-8.335c0-2.019-.571-3.592-1.704-4.693h.001zm-1.2 7.189v1.213c0 2.157-2.103 3.79-4.894 3.79-1.726 0-3.582-.849-3.582-2.702v-.052c0-1.767 1.573-2.815 4.218-2.815 1.438 0 2.869.19 4.258.566zM1.492 118.293c-.921 0-1.492-.474-1.492-1.237a2.82 2.82 0 01.08-.627l.864-3.24H.15l.254-.945h.807l.457-1.738h1.049l-.47 1.738h1.806l-.248.945H2l-.874 3.246c-.018.13-.03.262-.033.393 0 .332.23.499.685.499a2.19 2.19 0 00.802-.174l.18-.071-.281 1.011-.045.018a2.41 2.41 0 01-.94.182zm7.449-.105H7.884l.904-3.387c.05-.202.078-.41.08-.618 0-.692-.443-1.105-1.188-1.105-.865 0-1.698.751-1.98 1.786l-.887 3.324H3.762l.033-.121 2.19-8.198h1.049l-.81 3.054a2.521 2.521 0 011.8-.801 1.782 1.782 0 011.93 1.875 3.966 3.966 0 01-.15.917l-.863 3.274zm4.64.135c-1.577 0-2.636-1.023-2.636-2.547 0-1.729 1.412-3.656 3.435-3.656a2.188 2.188 0 011.672.629 2.196 2.196 0 01.645 1.669c-.002.397-.077.79-.22 1.159l-.025.063h-4.467c-.003.032-.003.066-.003.1a1.543 1.543 0 00.446 1.194 1.53 1.53 0 001.193.445 2.56 2.56 0 001.707-.651l.076-.061.565.71-.073.062a3.426 3.426 0 01-2.315.884zm-1.424-3.569h3.481c.018-.11.027-.222.026-.335a1.271 1.271 0 00-.8-1.299 1.25 1.25 0 00-.534-.085 2.363 2.363 0 00-2.173 1.719zm14.391 3.484h-.9l-.315-4.332-2.634 4.332h-.892l-.475-5.993h1.076l.28 4.361 2.639-4.383h.858l.303 4.386 2.632-4.364h1.122l-3.694 5.993zm6.23.085a2.576 2.576 0 01-2.705-2.684 3.595 3.595 0 011.033-2.453 3.572 3.572 0 012.435-1.064 2.565 2.565 0 012.53 1.618c.131.332.193.689.18 1.047a3.606 3.606 0 01-1.033 2.463 3.59 3.59 0 01-2.44 1.073zm.708-5.256c-1.235 0-2.359 1.217-2.359 2.554a1.602 1.602 0 001.024 1.64 1.6 1.6 0 00.678.099c1.236 0 2.361-1.213 2.361-2.545a1.605 1.605 0 00-1.023-1.645 1.577 1.577 0 00-.68-.101v-.002zm4.342 5.122h-1.055l1.578-5.944h1.057l-.297 1.154a3.021 3.021 0 012.34-1.259c.06 0 .12.002.18.006l.117.008-.288 1.108h-.135c-1.335 0-2.46 1.014-2.871 2.583l-.626 2.344zm4.534-.001h-1.053l2.229-8.32h1.048l-.032.122-2.192 8.198zm4.57.135c-1.37 0-2.37-1.066-2.37-2.532 0-1.989 1.517-3.669 3.313-3.669a2.258 2.258 0 012.127 1.238l.928-3.491h1.058l-2.213 8.32H48.71l.196-.732a2.758 2.758 0 01-1.974.866zm1.018-5.256c-1.268 0-2.299 1.185-2.299 2.642 0 .993.615 1.658 1.53 1.658 1.24 0 2.457-1.297 2.457-2.618a1.634 1.634 0 00-1.688-1.68v-.002zm7.973 5.121H54.88l1.59-5.943h1.054l-1.6 5.943zm1.95-7.007h-1.181l.312-1.145h1.176l-.308 1.145zm5.037 7.007h-1.054l.902-3.387c.05-.202.078-.41.081-.618 0-.701-.434-1.105-1.191-1.105-.864 0-1.696.751-1.98 1.786l-.882 3.324H57.73l1.58-5.943h1.06l-.182.68a2.514 2.514 0 011.811-.803 1.76 1.76 0 011.388.498 1.781 1.781 0 01.535 1.376 4.308 4.308 0 01-.147.915l-.866 3.277zM68.22 120a2.251 2.251 0 01-1.312-.416l-.084-.057.594-.805.078.065c.242.164.526.255.819.26.481 0 .887-.286 1.389-.99l-1.059-5.813h1.09l.775 4.625 2.968-4.625h1.205l-4.027 6.091C69.85 119.518 69.145 120 68.22 120zm8.883-1.677a2.58 2.58 0 01-1.946-.742 2.59 2.59 0 01-.764-1.942 3.596 3.596 0 011.035-2.454 3.577 3.577 0 012.438-1.063 2.572 2.572 0 012.717 2.665 3.611 3.611 0 01-1.036 2.465 3.594 3.594 0 01-2.444 1.071zm.71-5.256c-1.232 0-2.356 1.217-2.356 2.554a1.604 1.604 0 00.45 1.264 1.6 1.6 0 001.252.475c1.232 0 2.355-1.213 2.355-2.545a1.604 1.604 0 00-1.022-1.645 1.59 1.59 0 00-.68-.101l.001-.002zm5.684 5.242a1.768 1.768 0 01-1.8-1.131 1.787 1.787 0 01-.116-.747c.011-.308.06-.614.146-.911l.863-3.275h1.048l-.908 3.378a3.408 3.408 0 00-.073.617 1.062 1.062 0 00.329.834 1.052 1.052 0 00.85.28c.865 0 1.715-.773 1.976-1.8l.897-3.309h1.052l-1.588 5.944h-1.048l.184-.689a2.533 2.533 0 01-1.812.809zm5.457-.121h-1.056l1.581-5.943h1.056l-.296 1.152c.738-.892 1.573-1.312 2.523-1.251l.117.008-.292 1.108h-.134c-1.333 0-2.46 1.014-2.873 2.584l-.626 2.342zm11.925 0h-1.055l.895-3.387c.059-.201.089-.409.09-.618 0-.692-.447-1.105-1.196-1.105-.865 0-1.698.751-1.982 1.786l-.883 3.324h-1.053l.034-.121 2.19-8.198h1.05l-.82 3.055a2.512 2.512 0 011.804-.802 1.787 1.787 0 011.815 1.126c.093.238.135.494.122.749-.015.31-.065.617-.149.916l-.862 3.275zm3.573.121c-1.12 0-1.901-.695-1.901-1.688 0-1.304 1.065-2.179 2.651-2.179.664.01 1.324.108 1.962.292l.015-.049c.039-.165.061-.333.066-.502 0-.881-.785-1.066-1.444-1.066a4.469 4.469 0 00-1.592.302l-.105.041-.188-.914.077-.03a5.126 5.126 0 011.936-.357c1.473 0 2.352.703 2.352 1.881a3.634 3.634 0 01-.111.811l-.887 3.34h-1.049l.174-.659a2.786 2.786 0 01-1.956.777zm.778-3.036c-.948 0-1.609.515-1.609 1.253 0 .561.424.908 1.108.908a2.302 2.302 0 002.157-1.622l.08-.311a6.916 6.916 0 00-1.736-.228zm8.844 2.915h-1.052l.9-3.387a2.44 2.44 0 00.083-.618c0-.692-.443-1.105-1.189-1.105-.856 0-1.692.752-1.987 1.787l-.879 3.323h-1.052l1.579-5.943h1.054l-.18.68a2.523 2.523 0 011.803-.803 1.766 1.766 0 011.39.497 1.773 1.773 0 01.538 1.377 3.79 3.79 0 01-.145.917l-.863 3.275zm4.392.135c-1.372 0-2.372-1.066-2.372-2.532 0-1.989 1.518-3.669 3.314-3.669a2.287 2.287 0 012.129 1.24l.932-3.494h1.044l-2.218 8.32h-1.045l.192-.736a2.758 2.758 0 01-1.976.871zm1.025-5.256c-1.268 0-2.299 1.185-2.299 2.642 0 1.009.597 1.658 1.519 1.658 1.241 0 2.46-1.297 2.46-2.618a1.614 1.614 0 00-.477-1.205 1.611 1.611 0 00-1.203-.475v-.002z" fill="#1A1818"/></svg>