<svg width="225" height="55" fill="none" xmlns="http://www.w3.org/2000/svg"><path d="M188.587 22.654a10.85 10.85 0 00-3.997.753 26.398 26.398 0 009.666 13.365 20.594 20.594 0 002.991 1.769 9.835 9.835 0 001.871-5.771c0-5.585-4.716-10.117-10.529-10.117" fill="#E71618"/><path d="M212.733 28.182c3.863-2.985 13.62-9.442 12.109-12.058-1.221-2.116-6.554.438-12.578 3.74-4.733 2.6-3.713-.54-.704-5.129 2.654-4.039 6.638-9.49 4.414-10.965-2.585-1.717-10.512 7.786-12.364 9.662-1.852 1.877-3.544 2.886-2.615-2.34C202.241 4.15 202.487.52 200.94.082c-2.166-.61-3.52 2.115-6.76 9.742-2.32 5.475-4.351 6.444-4.598 1.534-.324-8.825-2.55-6.802-3.403-5.445-2.349 3.727-3.145 8.248-2.616 12.777a16.628 16.628 0 015.976-1.1c9.032 0 16.354 7.123 16.354 15.897a15.384 15.384 0 01-1.829 7.299c5.156.952 10.59.495 14.685-1.558.681-.342 2.336-1.367 1.306-2.78-2.058-2.825-5.767-1.342-9.733-2.503-3.483-1.019-.38-3.61 2.409-5.765" fill="#E71618"/><path d="M197.241 38.647a10.704 10.704 0 01-3.81 3.225 10.6 10.6 0 01-4.844 1.135c-5.815 0-10.531-4.537-10.531-10.13a10.196 10.196 0 011.83-5.704 10.058 10.058 0 014.703-3.663 25.096 25.096 0 01-1.026-4.734c-6.085 2.32-10.391 8.065-10.391 14.798 0 8.781 7.326 15.902 16.366 15.902a16.329 16.329 0 008.439-2.282 16.52 16.52 0 006.087-6.321 26.645 26.645 0 01-6.823-2.226" fill="#5A5C5E"/><path d="M13.019 25.738a1.163 1.163 0 00-.355-.796 1.143 1.143 0 00-.805-.32H1.349a1.146 1.146 0 00-.803.322 1.166 1.166 0 00-.355.794c.01.3.137.585.354.791.217.206.506.318.803.31h4.033v12.01c.01.321.142.626.37.85a1.217 1.217 0 001.705 0c.228-.224.36-.529.37-.85V26.84h4.033c.298.008.588-.104.805-.31.217-.206.345-.49.355-.79m3.507 2.44a5.71 5.71 0 00-2.229.466 5.751 5.751 0 00-1.875 1.3 5.848 5.848 0 00-1.619 4.194v.047a5.86 5.86 0 001.706 4.259 5.787 5.787 0 001.944 1.286 5.744 5.744 0 002.288.412 6.13 6.13 0 002.405-.408 6.17 6.17 0 002.062-1.315 1.029 1.029 0 00.37-.777 1.075 1.075 0 00-.337-.744 1.057 1.057 0 00-.759-.288c-.26.002-.51.096-.709.267a4.244 4.244 0 01-2.987 1.17 3.412 3.412 0 01-2.324-.796 3.469 3.469 0 01-1.202-2.16h7.675c.296.007.582-.105.796-.312.214-.206.338-.49.346-.788 0-2.893-1.908-5.812-5.55-5.812zm-.042 2.05c1.982 0 2.915 1.477 3.159 2.975h-6.382c.334-1.769 1.614-2.975 3.223-2.975zm8.283-6.33a1.153 1.153 0 00-.83.332 1.175 1.175 0 00-.351.827v13.82a1.185 1.185 0 00.359.838 1.163 1.163 0 00.844.327 1.135 1.135 0 00.836-.329 1.157 1.157 0 00.346-.835V25.059a1.194 1.194 0 00-.364-.83 1.173 1.173 0 00-.84-.33zm9.475 9.663l3.418-3.247a1.152 1.152 0 00.436-.872 1.11 1.11 0 00-.693-1.025 1.085 1.085 0 00-.426-.076 1.2 1.2 0 00-.915.423L30.635 34.1v-9.04a1.208 1.208 0 00-.366-.82 1.188 1.188 0 00-1.653 0 1.208 1.208 0 00-.366.82v13.82a1.189 1.189 0 00.363.837 1.167 1.167 0 00.847.325 1.133 1.133 0 001.088-.71 1.16 1.16 0 00.087-.451v-1.925l1.92-1.834 3.622 4.41a1.184 1.184 0 001.001.51 1.09 1.09 0 001.055-.636 1.116 1.116 0 00-.193-1.225l-3.798-4.617zm10.336-5.382c-3.48 0-6.2 2.626-6.2 5.982v.045c0 3.329 2.702 5.936 6.153 5.936 3.49 0 6.221-2.621 6.221-5.982v-.04c0-3.336-2.714-5.941-6.174-5.941zm-3.776 5.941a3.75 3.75 0 011.054-2.719 3.684 3.684 0 012.675-1.114 3.754 3.754 0 012.704 1.133 3.818 3.818 0 011.092 2.74v.045a3.742 3.742 0 01-1.07 2.707 3.679 3.679 0 01-2.68 1.093 3.726 3.726 0 01-2.688-1.123 3.793 3.793 0 01-1.087-2.722v-.04zm24.473-5.939a4.708 4.708 0 00-2.17.452c-.677.321-1.27.8-1.73 1.396a4.185 4.185 0 00-1.573-1.399 4.143 4.143 0 00-2.05-.45 4.233 4.233 0 00-1.77.331c-.56.236-1.064.59-1.478 1.038v-.084a1.213 1.213 0 00-.368-.822 1.193 1.193 0 00-1.659 0c-.223.216-.355.51-.368.822v9.376a1.192 1.192 0 00.363.837 1.172 1.172 0 00.845.327 1.14 1.14 0 00.838-.328 1.16 1.16 0 00.348-.836v-5.446c0-1.771 1.152-3.062 2.746-3.062 1.601 0 2.521 1.047 2.521 2.87v5.638a1.172 1.172 0 00.348.833 1.152 1.152 0 00.835.33 1.16 1.16 0 00.841-.328 1.181 1.181 0 00.36-.835V33.33c0-1.785 1.09-2.993 2.706-2.993 1.64 0 2.543 1.034 2.543 2.912v5.594c.012.312.142.607.364.823a1.188 1.188 0 001.657 0c.223-.216.353-.511.364-.823v-5.976c0-2.89-1.726-4.684-4.514-4.684m11.02-3.393a1.107 1.107 0 00-.773.32 1.125 1.125 0 00-.334.773v13.264c.013.29.136.565.344.766a1.114 1.114 0 001.548 0c.209-.201.332-.476.344-.766V25.883a1.123 1.123 0 00-.34-.782 1.103 1.103 0 00-.788-.31zm9.722 3.699a4.515 4.515 0 00-1.988.385 4.555 4.555 0 00-1.625 1.217v-.408a1.11 1.11 0 00-.335-.755 1.091 1.091 0 00-1.522 0 1.11 1.11 0 00-.335.755v9.456a1.088 1.088 0 00.334.768 1.068 1.068 0 00.778.295 1.04 1.04 0 00.765-.3 1.059 1.059 0 00.317-.763V33.62a3.053 3.053 0 01.875-2.281 3 3 0 012.26-.886c1.83 0 2.875 1.105 2.875 3.039v5.647a1.09 1.09 0 00.332.767 1.069 1.069 0 00.775.297 1.05 1.05 0 00.765-.302 1.068 1.068 0 00.32-.762v-6.042c0-2.799-1.804-4.608-4.588-4.608m16.901-4.327a1.041 1.041 0 00-.764.298 1.069 1.069 0 00-.319.762v5.145a5.26 5.26 0 00-1.833-1.38 5.217 5.217 0 00-2.24-.464 5.59 5.59 0 00-2.215.447 5.632 5.632 0 00-1.864 1.29 5.69 5.69 0 00-1.21 1.924 5.728 5.728 0 00-.365 2.25v.04a5.713 5.713 0 001.58 4.163 5.62 5.62 0 001.862 1.283c.7.296 1.453.446 2.212.441a5.088 5.088 0 002.258-.492 5.13 5.13 0 001.815-1.442v.745a1.09 1.09 0 00.332.767 1.08 1.08 0 00.777.296 1.045 1.045 0 00.763-.301 1.065 1.065 0 00.319-.761v-13.95a1.084 1.084 0 00-.691-.992 1.065 1.065 0 00-.417-.07zm-1.015 10.252v.044a3.95 3.95 0 01-1.108 2.782 3.878 3.878 0 01-2.731 1.182 3.728 3.728 0 01-2.703-1.18 3.793 3.793 0 01-1.027-2.784v-.043c0-2.328 1.54-3.95 3.73-3.95a3.808 3.808 0 012.743 1.16 3.897 3.897 0 011.096 2.79m9.917-5.928c-3.455 0-6.158 2.604-6.158 5.935v.038c0 3.297 2.685 5.887 6.115 5.887 3.458 0 6.174-2.605 6.174-5.925v-.044c0-3.306-2.695-5.89-6.13-5.89h-.001zm-3.927 5.89a3.875 3.875 0 011.101-2.822 3.824 3.824 0 011.275-.861 3.79 3.79 0 011.508-.286 3.885 3.885 0 012.807 1.17 3.962 3.962 0 011.132 2.844v.038a3.86 3.86 0 01-1.112 2.813 3.813 3.813 0 01-2.783 1.134 3.868 3.868 0 01-2.794-1.16 3.94 3.94 0 01-1.134-2.825v-.044zm17.473-5.888a4.527 4.527 0 00-1.988.386 4.564 4.564 0 00-1.627 1.216v-.408a1.104 1.104 0 00-1.095-1.064c-.284 0-.556.111-.761.31a1.113 1.113 0 00-.335.754v9.456a1.09 1.09 0 00.332.767 1.068 1.068 0 00.776.296 1.036 1.036 0 001.003-.648c.054-.131.081-.273.079-.415V33.62a3.044 3.044 0 01.878-2.283 2.984 2.984 0 012.264-.884c1.824 0 2.872 1.105 2.872 3.039v5.647a1.067 1.067 0 00.33.767 1.064 1.064 0 00.774.297 1.047 1.047 0 00.766-.3 1.07 1.07 0 00.32-.764v-6.042c0-2.799-1.804-4.608-4.589-4.608m11.725-.002a5.698 5.698 0 00-4.068 1.753 5.8 5.8 0 00-1.604 4.158v.041a5.835 5.835 0 001.693 4.227 5.739 5.739 0 001.929 1.275c.722.29 1.494.428 2.271.407a6.081 6.081 0 004.439-1.71.939.939 0 00.34-.704.974.974 0 00-.629-.876.957.957 0 00-.372-.06c-.234.004-.46.09-.639.244a4.432 4.432 0 01-3.099 1.206 3.6 3.6 0 01-2.457-.879 3.658 3.658 0 01-1.235-2.316h7.892c.27.005.53-.099.725-.287.195-.188.308-.446.315-.718 0-2.858-1.888-5.76-5.5-5.76h-.001zm-3.431 5.081c.305-1.916 1.662-3.218 3.388-3.218 2.13 0 3.101 1.61 3.326 3.218h-6.714zm14.955-.167l-.045-.009c-1.383-.407-2.681-.79-2.681-1.632v-.038c0-.795.774-1.337 1.927-1.337a6 6 0 012.829.81c.156.076.327.115.5.115a.958.958 0 00.689-.258.977.977 0 00.306-.674 1.032 1.032 0 00-.538-.884 8.342 8.342 0 00-3.738-.956c-2.418 0-4.107 1.378-4.107 3.354v.045c0 2.233 2.269 2.853 3.923 3.305 1.5.404 2.637.785 2.637 1.681v.043c0 .891-.833 1.483-2.086 1.483a6.257 6.257 0 01-3.441-1.114.926.926 0 00-.562-.17.933.933 0 00-.942.643.953.953 0 00.367 1.086 8.2 8.2 0 004.491 1.411c2.56 0 4.279-1.407 4.279-3.508v-.038c0-2.253-2.29-2.913-3.804-3.356m6.764-4.785a1.066 1.066 0 00-.76.306 1.085 1.085 0 00-.323.757v9.455a1.085 1.085 0 00.33.766 1.07 1.07 0 00.775.297 1.043 1.043 0 001.005-.648c.054-.131.082-.272.082-.415v-9.455a1.08 1.08 0 00-.691-.993 1.065 1.065 0 00-.417-.07m11.95 1.226c-.876-.84-2.165-1.274-3.829-1.274a9.386 9.386 0 00-3.799.76.956.956 0 00-.237 1.642.934.934 0 00.626.19c.136-.003.271-.029.399-.077a6.984 6.984 0 012.836-.595c1.42 0 3.107.477 3.107 2.726v.059a12.479 12.479 0 00-3.215-.385c-3.142 0-5.09 1.438-5.09 3.757v.046c0 2.384 2.251 3.631 4.476 3.631a5.271 5.271 0 003.829-1.47v.34a1.033 1.033 0 00.321.732 1.002 1.002 0 00.746.272 1.015 1.015 0 00.752-.293 1.033 1.033 0 00.309-.75v-5.957a4.469 4.469 0 00-.265-1.808 4.42 4.42 0 00-.967-1.546h.001zm-.866 5.139v.864c0 1.54-1.521 2.708-3.533 2.708-1.245 0-2.589-.607-2.589-1.931v-.036c0-1.261 1.138-2.01 3.047-2.01 1.038 0 2.072.136 3.075.405M.069 52.88c.002-.147.02-.293.055-.434l.642-2.422H.198l.145-.54h.579l.327-1.252h.605l-.335 1.252h1.29l-.138.54H1.377l-.64 2.39c-.014.1-.022.201-.025.302 0 .292.212.426.56.426.206-.004.409-.048.597-.129l-.154.561a1.63 1.63 0 01-.649.124c-.59 0-1-.284-1-.818" fill="#1A1818"/><path d="M1.069 53.77C.41 53.77 0 53.426 0 52.877c.002-.152.021-.304.057-.452l.619-2.333H.109l.182-.68h.577l.327-1.249h.75l-.336 1.248H2.9l-.175.681H1.432L.806 52.43c-.012.095-.02.19-.022.285 0 .237.166.357.491.357.197-.004.391-.047.572-.126l.13-.052-.203.729-.031.013c-.214.09-.443.134-.675.13v.003zm-.78-3.819h.564l-.66 2.508a1.831 1.831 0 00-.055.416c0 .468.35.75.928.75.202.003.403-.034.591-.109l.11-.394a1.564 1.564 0 01-.494.088c-.55 0-.63-.312-.63-.499a2.53 2.53 0 01.024-.312l.656-2.45h1.294l.103-.4H1.43l.335-1.251H1.3l-.328 1.25H.397l-.107.403zm4.052-2.174h.606l-.625 2.372a1.861 1.861 0 011.426-.753 1.2 1.2 0 01.944.34 1.222 1.222 0 01.367.94 2.76 2.76 0 01-.106.644l-.604 2.302h-.613l.623-2.349c.04-.152.06-.308.062-.465a.833.833 0 00-.261-.648.82.82 0 00-.66-.215 1.673 1.673 0 00-.957.424c-.267.24-.45.56-.524.913l-.622 2.34H2.79l1.552-5.845z" fill="#1A1818"/><path d="M6.4 53.694h-.758l.648-2.438c.035-.147.054-.297.057-.448a.765.765 0 00-.24-.598.75.75 0 00-.61-.195 1.6 1.6 0 00-.917.409 1.63 1.63 0 00-.5.876l-.633 2.393h-.752l.024-.088 1.569-5.903h.747l-.579 2.199a1.797 1.797 0 011.29-.575 1.26 1.26 0 01.994.357 1.285 1.285 0 01.385.992 3.008 3.008 0 01-.107.662l-.617 2.357zm-.574-.141h.468l.593-2.252c.058-.204.093-.413.103-.625a1.164 1.164 0 00-.348-.892 1.142 1.142 0 00-.897-.32 1.785 1.785 0 00-1.375.729l-.196.22.68-2.573h-.46l-1.517 5.708h.464l.606-2.288c.079-.368.272-.701.55-.95.28-.25.63-.404 1.002-.439a.88.88 0 01.708.236.897.897 0 01.281.697 2.118 2.118 0 01-.064.483l-.598 2.266zm2.679-1.621a1.18 1.18 0 00.337.912 1.158 1.158 0 00.904.34c.467 0 .917-.172 1.265-.486l.32.405a2.372 2.372 0 01-1.614.617 1.679 1.679 0 01-1.3-.47 1.707 1.707 0 01-.518-1.29 2.566 2.566 0 01.688-1.764 2.522 2.522 0 011.702-.8 1.476 1.476 0 011.15.43 1.502 1.502 0 01.438 1.156 2.262 2.262 0 01-.155.809H8.514a.707.707 0 00-.01.141zm2.743-.64c.02-.103.03-.207.03-.312a.984.984 0 00-.269-.771.967.967 0 00-.755-.296 1.778 1.778 0 00-1.052.411 1.804 1.804 0 00-.598.965l2.644.003z" fill="#1A1818"/><path d="M9.717 53.793a1.737 1.737 0 01-1.349-.491 1.769 1.769 0 01-.535-1.343 2.642 2.642 0 01.71-1.809 2.598 2.598 0 011.747-.822 1.552 1.552 0 011.196.453 1.58 1.58 0 01.462 1.201 2.338 2.338 0 01-.159.833l-.015.042H8.577v.074a1.116 1.116 0 00.319.859 1.096 1.096 0 00.852.321c.45.001.886-.166 1.223-.468l.055-.045.404.512-.052.046a2.44 2.44 0 01-1.656.636h-.005zm.577-4.326a2.45 2.45 0 00-1.651.78 2.5 2.5 0 00-.669 1.712 1.649 1.649 0 00.498 1.24 1.62 1.62 0 001.249.45 2.291 2.291 0 001.518-.557l-.235-.296a1.917 1.917 0 01-1.255.458 1.218 1.218 0 01-.953-.36 1.24 1.24 0 01-.356-.962.808.808 0 01.011-.156l.015-.055h3.215c.086-.236.13-.486.132-.738a1.44 1.44 0 00-.417-1.106 1.414 1.414 0 00-1.102-.409v-.001zm1.016 1.897H8.514l.027-.091c.093-.394.311-.747.621-1.005a1.84 1.84 0 011.096-.423 1.026 1.026 0 01.807.315 1.046 1.046 0 01.287.823c0 .11-.01.218-.03.325l-.012.056zm-2.605-.142h2.489a1.47 1.47 0 00.016-.239.916.916 0 00-.57-.937.893.893 0 00-.382-.06 1.677 1.677 0 00-.975.364 1.701 1.701 0 00-.578.872m6.631-1.739h.629l.21 3.3 1.983-3.315h.51l.227 3.315 1.976-3.3h.639l-2.556 4.176h-.54l-.24-3.272L16.2 53.66h-.537l-.326-4.176z" fill="#1A1818"/><path d="M18.993 53.73h-.643l-.227-3.121-1.884 3.12h-.638l-.34-4.316h.77l.2 3.14 1.89-3.156h.613l.219 3.16 1.883-3.144h.8l-2.643 4.317zm-.515-.142h.437l2.47-4.035h-.475l-2.068 3.454-.24-3.47h-.406l-2.078 3.472-.22-3.456h-.488l.318 4.035h.431l2.07-3.423.249 3.423zm3.11-1.729c.012-.645.269-1.26.718-1.719A2.479 2.479 0 0124 49.395a1.752 1.752 0 011.342.507 1.782 1.782 0 01.527 1.343 2.534 2.534 0 01-.718 1.724 2.49 2.49 0 01-1.698.75 1.753 1.753 0 01-1.343-.512 1.784 1.784 0 01-.522-1.349zm3.66-.594a1.237 1.237 0 00-.341-.963 1.214 1.214 0 00-.947-.367 1.905 1.905 0 00-1.248.61 1.937 1.937 0 00-.51 1.301 1.228 1.228 0 00.342.959 1.208 1.208 0 00.944.361 1.89 1.89 0 001.249-.603c.326-.352.508-.816.51-1.298" fill="#1A1818"/><path d="M23.45 53.793a1.83 1.83 0 01-1.39-.536 1.862 1.862 0 01-.547-1.398 2.597 2.597 0 01.74-1.768 2.552 2.552 0 011.744-.766 1.822 1.822 0 011.39.528 1.854 1.854 0 01.549 1.392 2.607 2.607 0 01-.739 1.775 2.563 2.563 0 01-1.746.774v-.001zm.547-4.327a2.41 2.41 0 00-1.644.725 2.455 2.455 0 00-.699 1.668 1.736 1.736 0 00.507 1.296 1.706 1.706 0 001.29.494 2.413 2.413 0 001.65-.729 2.455 2.455 0 00.695-1.675 1.717 1.717 0 00-.503-1.297 1.685 1.685 0 00-1.296-.483v.001zm-.511 3.77a1.27 1.27 0 01-.992-.382 1.291 1.291 0 01-.363-1.007 2 2 0 01.529-1.35 1.966 1.966 0 011.297-.629 1.272 1.272 0 01.994.387 1.297 1.297 0 01.362 1.012c-.003.5-.192.981-.531 1.346a1.96 1.96 0 01-1.297.624h.001zm.47-3.228c-.46.036-.888.246-1.201.587-.313.34-.488.788-.488 1.253a1.164 1.164 0 00.323.91 1.142 1.142 0 00.895.342 1.82 1.82 0 001.202-.582 1.85 1.85 0 00.489-1.251 1.162 1.162 0 00-.321-.914 1.143 1.143 0 00-.899-.345zm3.537-.525h.612l-.276 1.082c.193-.351.476-.643.82-.846a2.203 2.203 0 011.131-.307l-.17.665h-.045c-.9 0-1.797.657-2.12 1.913l-.435 1.63h-.612l1.095-4.137z" fill="#1A1818"/><path d="M27.061 53.694h-.752l1.13-4.281h.755l-.213.832a2.172 2.172 0 011.674-.908c.04 0 .085 0 .129.005l.084.006-.206.796h-.098c-.954 0-1.76.729-2.053 1.859l-.45 1.69zm-.575-.142h.47l.419-1.582c.31-1.188 1.162-1.958 2.178-1.964l.135-.526a2.172 2.172 0 00-1.048.325 2.196 2.196 0 00-.76.798l-.218.319.351-1.369h-.471l-1.056 3.999zm4.719-5.775h.609l-1.556 5.845h-.61l1.557-5.845z" fill="#1A1818"/><path d="M30.311 53.694h-.756l1.598-5.99h.748l-.02.087-1.57 5.903zm-.574-.141h.467l1.518-5.708h-.464l-1.52 5.708zm2.211-1.585a2.487 2.487 0 01.63-1.761 2.444 2.444 0 011.672-.812c.331-.016.66.075.936.26.277.185.488.454.602.768l.699-2.646h.613l-1.547 5.845h-.618l.187-.703a2.039 2.039 0 01-1.55.801 1.61 1.61 0 01-1.193-.517 1.638 1.638 0 01-.433-1.235h.002zm3.628-.747a1.258 1.258 0 00-.362-.92 1.237 1.237 0 00-.913-.365c-.486.035-.94.261-1.262.632-.321.37-.485.853-.455 1.344a1.164 1.164 0 00.301.897 1.143 1.143 0 00.865.367c.49-.042.946-.265 1.283-.626.337-.36.53-.833.543-1.328" fill="#1A1818"/><path d="M33.576 53.792a1.685 1.685 0 01-1.237-.54 1.714 1.714 0 01-.457-1.28 2.573 2.573 0 01.655-1.808 2.529 2.529 0 011.717-.837 1.622 1.622 0 011.522.893l.66-2.514h.76l-1.585 5.989h-.762l.14-.525a1.989 1.989 0 01-1.413.624v-.002zm.676-4.326a2.391 2.391 0 00-1.62.796 2.432 2.432 0 00-.612 1.71 1.57 1.57 0 00.41 1.185 1.543 1.543 0 001.146.494 1.942 1.942 0 001.498-.776l.198-.225-.241.905h.473l1.509-5.71h-.47l-.739 2.798-.077-.193a1.513 1.513 0 00-.58-.734 1.493 1.493 0 00-.895-.25zm-.5 3.781a1.2 1.2 0 01-.912-.389 1.223 1.223 0 01-.32-.945c-.03-.51.141-1.01.475-1.392a1.911 1.911 0 011.31-.652 1.288 1.288 0 01.964.381 1.31 1.31 0 01.38.972 2.086 2.086 0 01-.561 1.38 2.05 2.05 0 01-1.335.645zm.553-3.239a1.774 1.774 0 00-1.211.61 1.806 1.806 0 00-.435 1.294 1.101 1.101 0 00.282.845 1.083 1.083 0 00.812.352c.47-.044.91-.26 1.233-.607.324-.347.511-.802.526-1.279a1.186 1.186 0 00-.342-.87 1.164 1.164 0 00-.865-.343m6.155-.526h.61l-1.107 4.138h-.604l1.1-4.138zm.38-1.59h.699l-.183.685h-.7l.183-.684z" fill="#1A1818"/><path d="M40.014 53.692h-.748l1.138-4.28h.754l-1.144 4.28zm-.567-.14h.459l1.072-4h-.468l-1.063 4zm1.959-4.904h-.845l.224-.824h.841l-.22.825zm-.663-.142h.557l.146-.544h-.555l-.148.544zm1.596.978h.614l-.177.665a1.881 1.881 0 011.432-.754 1.197 1.197 0 01.944.34 1.218 1.218 0 01.364.941 3.112 3.112 0 01-.103.643l-.604 2.303h-.612l.625-2.349c.035-.152.054-.308.057-.465a.832.832 0 00-.26-.649.817.817 0 00-.662-.214 1.674 1.674 0 00-.957.424 1.7 1.7 0 00-.524.912l-.619 2.341h-.61l1.092-4.138z" fill="#1A1818"/><path d="M44.86 53.695h-.751l.645-2.438c.035-.147.054-.298.055-.449a.76.76 0 00-.525-.766.742.742 0 00-.328-.027c-.34.035-.661.178-.916.41a1.627 1.627 0 00-.498.876l-.631 2.392h-.759l1.135-4.281h.757l-.13.49a1.806 1.806 0 011.294-.576 1.26 1.26 0 01.994.358 1.284 1.284 0 01.383.991 3.155 3.155 0 01-.103.658l-.623 2.362zm-.571-.142h.464l.589-2.252c.056-.204.09-.413.103-.625a1.16 1.16 0 00-.346-.889 1.141 1.141 0 00-.892-.32 1.805 1.805 0 00-1.38.728l-.194.219.23-.862h-.47l-1.057 4h.467l.605-2.29a1.75 1.75 0 011.548-1.388.883.883 0 01.708.236.9.9 0 01.283.697 2.16 2.16 0 01-.062.484l-.596 2.263zm3.445 1.088l.339-.465c.184.13.402.203.627.208.349 0 .658-.18 1.07-.767l-.75-4.132h.64l.576 3.452 2.2-3.452h.694l-2.81 4.277c-.58.856-1.072 1.167-1.684 1.167a1.546 1.546 0 01-.901-.286" fill="#1A1818"/><path d="M48.636 55a1.61 1.61 0 01-.942-.302l-.057-.04.424-.58.056.047c.172.12.375.185.584.19.346 0 .635-.209.995-.713l-.758-4.187h.779l.556 3.329 2.123-3.33h.863l-2.88 4.386c-.58.853-1.084 1.2-1.744 1.2h.001zm-.801-.377c.238.156.516.239.8.238.609 0 1.08-.334 1.628-1.14L53 49.553h-.527L50.2 53.126l-.596-3.572h-.496l.737 4.08-.016.022c-.399.566-.722.797-1.126.797a1.228 1.228 0 01-.611-.177l-.256.347zm5.27-2.764c.013-.645.271-1.26.721-1.72a2.483 2.483 0 011.697-.744 1.754 1.754 0 011.342.507 1.787 1.787 0 01.53 1.343 2.538 2.538 0 01-.722 1.725c-.45.46-1.06.729-1.7.75a1.76 1.76 0 01-1.344-.514 1.791 1.791 0 01-.526-1.348h.002zm3.659-.594a1.236 1.236 0 00-.338-.96 1.213 1.213 0 00-.94-.37 1.895 1.895 0 00-1.246.61 1.934 1.934 0 00-.507 1.3 1.225 1.225 0 00.34.96 1.204 1.204 0 00.946.36 1.89 1.89 0 001.245-.604c.325-.353.506-.816.508-1.297" fill="#1A1818"/><path d="M54.972 53.793a1.831 1.831 0 01-1.392-.536 1.864 1.864 0 01-.547-1.398 2.6 2.6 0 01.742-1.768 2.556 2.556 0 011.745-.766 1.825 1.825 0 011.391.527 1.855 1.855 0 01.55 1.393 2.61 2.61 0 01-.74 1.776 2.564 2.564 0 01-1.749.773v-.001zm.548-4.327c-.62.02-1.21.279-1.646.724a2.455 2.455 0 00-.7 1.669 1.737 1.737 0 00.507 1.296 1.707 1.707 0 001.291.494 2.417 2.417 0 001.653-.727 2.46 2.46 0 00.7-1.676 1.736 1.736 0 00-.513-1.293 1.707 1.707 0 00-1.292-.488v.001zm-.509 3.77a1.268 1.268 0 01-.991-.383 1.292 1.292 0 01-.363-1.006 2 2 0 01.528-1.35 1.967 1.967 0 011.296-.629 1.273 1.273 0 01.994.388 1.298 1.298 0 01.362 1.01 1.995 1.995 0 01-.53 1.347 1.96 1.96 0 01-1.296.624zm.47-3.228a1.823 1.823 0 00-1.2.588c-.312.34-.485.788-.485 1.252a1.16 1.16 0 00.32.909 1.14 1.14 0 00.895.343 1.818 1.818 0 001.2-.583c.312-.34.486-.786.487-1.25a1.164 1.164 0 00-.32-.914 1.143 1.143 0 00-.898-.345m2.749 2.42c.009-.216.044-.43.103-.639l.603-2.307h.608l-.626 2.347a2.413 2.413 0 00-.057.461.838.838 0 00.257.65.824.824 0 00.657.222 1.68 1.68 0 001.48-1.352l.629-2.33h.61l-1.098 4.138h-.61l.18-.677a1.875 1.875 0 01-1.435.762 1.192 1.192 0 01-.94-.34 1.214 1.214 0 01-.361-.94" fill="#1A1818"/><path d="M59.53 53.779a1.26 1.26 0 01-.992-.361 1.281 1.281 0 01-.38-.992c.008-.222.042-.442.104-.655l.615-2.36h.754l-.65 2.433a2.428 2.428 0 00-.052.447.767.767 0 00.236.599.751.751 0 00.607.201 1.61 1.61 0 00.919-.416 1.64 1.64 0 00.496-.884l.642-2.382h.75l-1.134 4.279h-.753l.132-.496a1.809 1.809 0 01-1.296.582l.002.005zm-.546-4.23l-.589 2.253a2.687 2.687 0 00-.1.624 1.15 1.15 0 00.34.893 1.126 1.126 0 00.893.318 1.808 1.808 0 001.384-.737l.196-.224-.233.874h.464l1.06-3.999h-.464l-.613 2.28a1.775 1.775 0 01-.546.956 1.75 1.75 0 01-1.001.444.881.881 0 01-.704-.242.897.897 0 01-.276-.698c.005-.161.023-.321.056-.479l.605-2.26-.472-.003zm4.868-.066h.61l-.273 1.082c.193-.352.476-.645.82-.848a2.196 2.196 0 011.133-.305l-.176.665h-.043c-.898 0-1.794.657-2.121 1.913l-.433 1.63h-.615l1.098-4.137z" fill="#1A1818"/><path d="M63.422 53.695h-.758l1.134-4.281h.753l-.209.829a2.12 2.12 0 01.79-.68 2.098 2.098 0 011.015-.22l.084.007-.208.797h-.096c-.955 0-1.76.728-2.055 1.858l-.45 1.69zm-.575-.142h.468l.418-1.582c.31-1.187 1.165-1.958 2.18-1.963l.14-.527a2.163 2.163 0 00-1.05.325 2.187 2.187 0 00-.759.799l-.22.319.348-1.369h-.468l-1.057 3.998zm7.018-5.776h.607l-.631 2.372a1.878 1.878 0 011.428-.753 1.198 1.198 0 01.948.337 1.22 1.22 0 01.367.944c-.01.217-.045.433-.103.643l-.603 2.302h-.613l.619-2.349a1.7 1.7 0 00.065-.465.839.839 0 00-.264-.648.824.824 0 00-.66-.215 1.682 1.682 0 00-.96.424c-.267.24-.452.56-.527.913l-.62 2.34h-.606l1.553-5.845z" fill="#1A1818"/><path d="M71.926 53.694h-.754l.641-2.438a1.71 1.71 0 00.065-.449.769.769 0 00-.529-.764.75.75 0 00-.327-.029 1.606 1.606 0 00-.918.41 1.63 1.63 0 00-.5.876l-.632 2.392h-.753l.025-.088 1.568-5.9h.751l-.585 2.198a1.804 1.804 0 011.288-.575 1.264 1.264 0 01.998.356 1.287 1.287 0 01.388.993 3.025 3.025 0 01-.107.662l-.619 2.356zm-.575-.141h.47l.59-2.252a2.87 2.87 0 00.1-.625 1.153 1.153 0 00-.346-.894 1.132 1.132 0 00-.899-.315 1.8 1.8 0 00-1.376.728l-.195.22.685-2.572h-.464l-1.518 5.708h.464l.605-2.289c.078-.368.271-.7.55-.95.28-.25.63-.403 1.002-.438a.883.883 0 01.71.234.899.899 0 01.284.698c0 .164-.024.328-.07.486l-.592 2.26zm1.829-.991c0-.928.764-1.496 1.825-1.496a5.44 5.44 0 011.45.224l.03-.1c.03-.125.048-.253.052-.382 0-.524-.366-.838-1.104-.838a3.3 3.3 0 00-1.163.22l-.106-.52a3.586 3.586 0 011.362-.254c1.034 0 1.615.489 1.615 1.286-.007.19-.033.38-.078.566l-.619 2.348h-.607l.172-.646a1.984 1.984 0 01-1.538.735 1.156 1.156 0 01-.893-.287 1.177 1.177 0 01-.396-.858l-.002.002zm3.1-.563l.075-.294a4.94 4.94 0 00-1.327-.186c-.717 0-1.22.399-1.22.974 0 .438.333.724.862.724a1.71 1.71 0 001-.346 1.74 1.74 0 00.61-.872" fill="#1A1818"/><path d="M74.466 53.78a1.224 1.224 0 01-1.247-.716 1.252 1.252 0 01-.113-.499c0-.936.763-1.566 1.897-1.566.474.006.946.076 1.402.207l.012-.033c.028-.12.044-.241.047-.364 0-.632-.56-.767-1.031-.767a3.12 3.12 0 00-1.139.218l-.075.024-.134-.655.056-.022a3.652 3.652 0 011.385-.256c1.054 0 1.683.505 1.683 1.353a2.625 2.625 0 01-.08.585l-.634 2.402h-.75l.126-.473a1.99 1.99 0 01-1.402.56l-.003.001zm.54-2.644c-1.052 0-1.76.572-1.76 1.428a1.13 1.13 0 00.38.805 1.106 1.106 0 00.844.27 1.886 1.886 0 001.484-.71l.196-.227-.225.85h.464l.607-2.297c.045-.18.07-.366.075-.551 0-.771-.565-1.214-1.544-1.214a3.51 3.51 0 00-1.28.228l.077.382a3.223 3.223 0 011.11-.2c.756 0 1.172.322 1.172.908a1.91 1.91 0 01-.051.4l-.052.166-.065-.016a5.27 5.27 0 00-1.431-.222h-.001zm-.338 2.151c-.565 0-.928-.309-.928-.791 0-.615.528-1.04 1.289-1.04a5.06 5.06 0 011.347.187l.066.019-.094.358a1.8 1.8 0 01-.635.91 1.776 1.776 0 01-1.044.359l-.001-.002zm.362-1.692c-.677 0-1.152.372-1.152.903 0 .403.306.65.793.65.347-.005.682-.12.96-.33.277-.21.481-.502.584-.835l.058-.224a4.854 4.854 0 00-1.243-.164m3.783-2.111h.611l-.173.665a1.877 1.877 0 011.426-.754 1.197 1.197 0 01.946.338 1.216 1.216 0 01.365.943 2.66 2.66 0 01-.103.643l-.602 2.303h-.61l.62-2.349c.04-.152.06-.308.06-.465a.831.831 0 00-.26-.648.815.815 0 00-.658-.215 1.694 1.694 0 00-.959.425 1.72 1.72 0 00-.53.911l-.619 2.341h-.608l1.094-4.138z" fill="#1A1818"/><path d="M81.332 53.695h-.753l.644-2.439c.039-.146.059-.297.06-.448a.766.766 0 00-.24-.597.753.753 0 00-.61-.196c-.341.036-.663.18-.918.411a1.646 1.646 0 00-.504.876l-.63 2.392h-.752l1.13-4.281h.753l-.129.49a1.816 1.816 0 011.29-.576 1.262 1.262 0 01.994.358 1.285 1.285 0 01.385.99c-.01.225-.045.447-.106.663l-.614 2.357zm-.572-.142h.464l.59-2.252a2.6 2.6 0 00.103-.625 1.154 1.154 0 00-.344-.893 1.133 1.133 0 00-.897-.316 1.798 1.798 0 00-1.376.728l-.193.219.227-.862h-.464l-1.057 4h.464l.602-2.29c.082-.367.276-.698.556-.947.28-.25.63-.404 1-.44a.883.883 0 01.926.552c.05.12.071.25.065.38a1.911 1.911 0 01-.067.486l-.599 2.26zm2.07-1.585a2.484 2.484 0 01.629-1.76 2.445 2.445 0 011.67-.813 1.565 1.565 0 011.542 1.028l.703-2.646h.604l-1.549 5.845h-.605l.18-.703a2.05 2.05 0 01-1.547.801 1.606 1.606 0 01-1.195-.516 1.637 1.637 0 01-.433-1.236zm3.627-.747a1.253 1.253 0 00-.358-.92 1.232 1.232 0 00-.91-.365c-.486.034-.94.262-1.26.632-.322.37-.485.853-.455 1.344a1.154 1.154 0 00.294.896 1.134 1.134 0 00.86.368 1.99 1.99 0 001.286-.624c.337-.36.53-.835.543-1.33" fill="#1A1818"/><path d="M84.459 53.792a1.688 1.688 0 01-1.242-.539 1.72 1.72 0 01-.46-1.281 2.575 2.575 0 01.655-1.807 2.53 2.53 0 011.717-.838 1.633 1.633 0 011.524.895l.665-2.516h.748l-1.587 5.989h-.748l.14-.527a1.994 1.994 0 01-1.414.627l.002-.003zm.668-4.325a2.39 2.39 0 00-1.62.796 2.432 2.432 0 00-.612 1.71 1.57 1.57 0 00.412 1.187 1.543 1.543 0 001.148.492 1.949 1.949 0 001.495-.776l.191-.224-.23.904h.458l1.514-5.71h-.46l-.742 2.795-.077-.19a1.506 1.506 0 00-.579-.736 1.486 1.486 0 00-.898-.248zm-.5 3.78a1.198 1.198 0 01-.908-.39 1.22 1.22 0 01-.315-.944c-.03-.509.14-1.01.474-1.392a1.91 1.91 0 011.31-.651 1.282 1.282 0 01.96.383 1.306 1.306 0 01.376.97 2.086 2.086 0 01-.562 1.38 2.05 2.05 0 01-1.335.644zm.56-3.238a1.775 1.775 0 00-1.211.61 1.807 1.807 0 00-.435 1.294 1.083 1.083 0 00.273.848 1.066 1.066 0 00.813.348c.47-.044.91-.26 1.233-.607.325-.347.512-.802.528-1.278a1.182 1.182 0 00-.34-.87 1.161 1.161 0 00-.86-.344" fill="#1A1818"/></svg>